<svg width="30" height="30" viewBox="0 0 30 30" fill="none" xmlns="http://www.w3.org/2000/svg">
<path fill-rule="evenodd" clip-rule="evenodd" d="M26.5672 18.15C26.1194 18.15 25.5224 18.3 24.9254 18.3C17.6119 18.3 11.6418 12.3 11.6418 4.95C11.6418 4.35 11.6418 3.9 11.791 3.3C11.9403 2.1 12.2388 1.05 12.5373 0C11.3433 0.15 10.2985 0.6 9.10448 1.05C3.73134 3.3 0 8.7 0 14.85C0 23.25 6.71642 30 15.0746 30C21.3433 30 26.5672 26.25 28.9552 20.85C29.403 19.8 29.7015 18.6 30 17.4C28.806 17.7 27.7612 18 26.5672 18.15ZM15.0746 27C8.35821 27 2.98507 21.6 2.98507 14.85C2.98507 10.5 5.22388 6.75 8.65672 4.65C8.65672 4.8 8.65672 4.8 8.65672 4.95C8.65672 13.95 15.9701 21.3 24.9254 21.3C25.0746 21.3 25.0746 21.3 25.2239 21.3C23.1343 24.75 19.403 27 15.0746 27Z" fill="black"/>
</svg>
