<svg width="20" height="30" viewBox="0 0 20 30" fill="none" xmlns="http://www.w3.org/2000/svg">
<path fill-rule="evenodd" clip-rule="evenodd" d="M16.7705 14.37C13.7205 17.1267 12.3371 18.1833 12.1271 23H6.58715L6.66048 21.9633C6.66048 16.91 8.49715 14.61 10.8805 12.48C12.5071 11.02 13.9271 10.1 13.9271 8.30333C13.9271 6.25667 12.1338 5.08667 10.0005 5.08667C7.41048 5.08667 5.66715 6.59 5.61381 9.05333H0.280478C0.230478 3.63333 4.36381 0 10.1271 0C16.1838 0 19.5271 4 19.5271 8.35333C19.5271 10.4867 18.4405 12.8233 16.7705 14.37ZM7.00381 24.5067H11.8305C11.941 24.5067 12.047 24.5506 12.1251 24.6287C12.2032 24.7068 12.2471 24.8128 12.2471 24.9233V29.59C12.2454 29.6993 12.2007 29.8036 12.1228 29.8803C12.0448 29.957 11.9398 30 11.8305 30H7.00381C6.8933 30 6.78732 29.9561 6.70918 29.878C6.63104 29.7998 6.58715 29.6938 6.58715 29.5833V24.9167C6.58889 24.8073 6.63356 24.703 6.71152 24.6263C6.78947 24.5496 6.89445 24.5067 7.00381 24.5067Z" fill="#424242"/>
</svg>
