<svg width="21" height="16" viewBox="0 0 21 16" fill="none" xmlns="http://www.w3.org/2000/svg">
<path fill-rule="evenodd" clip-rule="evenodd" d="M3.75513 0.275507C3.38778 -0.0918357 2.79219 -0.0918357 2.42484 0.275507C2.0575 0.642859 2.0575 1.23844 2.42484 1.60579L3.95798 3.13893C2.3989 4.14589 1.10386 5.52663 0.199639 7.15443C-0.0665463 7.63359 -0.0665463 8.21567 0.199639 8.69484C2.12595 12.1625 5.8259 14.5092 10.074 14.5092C11.6253 14.5092 13.1036 14.1962 14.449 13.63L16.3928 15.5737C16.7601 15.9411 17.3557 15.9411 17.7231 15.5737C18.0905 15.2064 18.0905 14.6108 17.7231 14.2434L3.75513 0.275507ZM12.6677 11.8486L11.2906 10.4715C10.9223 10.6478 10.5096 10.7466 10.074 10.7466C8.51541 10.7466 7.252 9.48319 7.252 7.92463C7.252 7.48902 7.35073 7.07635 7.52702 6.70799L6.14993 5.33088C5.65748 6.07437 5.37069 6.96601 5.37069 7.92463C5.37069 10.5221 7.47642 12.6279 10.074 12.6279C11.0326 12.6279 11.9242 12.3411 12.6677 11.8486Z" fill="#444444"/>
<path d="M14.7776 7.92388C14.7776 8.2658 14.7411 8.59908 14.6719 8.92031L17.486 11.7345C18.4728 10.8748 19.3086 9.84628 19.9486 8.69408C20.2148 8.21491 20.2148 7.63284 19.9486 7.15367C18.0224 3.68596 14.3224 1.33932 10.0743 1.33932C9.15571 1.33932 8.26265 1.44906 7.40771 1.65615L9.07791 3.32638C9.39915 3.2571 9.73242 3.22063 10.0743 3.22063C12.6719 3.22063 14.7776 5.32635 14.7776 7.92388Z" fill="#444444"/>
</svg>
