<svg width="306" height="80" viewBox="0 0 306 80" fill="none" xmlns="http://www.w3.org/2000/svg">
<g clip-path="url(#clip0_8_98)">
<path d="M136.527 62.4741V12.1407L170.464 48.0963V15.3482H177.487V65.3407L143.55 29.4778V62.4704H136.527V62.4741Z" fill="#010101"/>
<path d="M218.658 15.3481V22.0296H229.356V54.4778L236.364 62.4741H236.378V22.0333H247.047V15.3518H218.658V15.3481Z" fill="#010101"/>
<path d="M305.913 17.8816V26.3038C301.853 22.8668 297.654 21.1445 293.313 21.1445C288.529 21.1445 284.502 22.8853 281.225 26.3631C277.93 29.8223 276.284 34.0557 276.284 39.0594C276.284 44.0631 277.93 48.1742 281.225 51.5742C284.521 54.9742 288.558 56.6705 293.342 56.6705C295.815 56.6705 297.914 56.2631 299.64 55.4482C300.606 55.0408 301.604 54.4927 302.639 53.8001C303.675 53.1075 304.764 52.2742 305.909 51.2964V59.8742C301.89 62.1742 297.669 63.3223 293.251 63.3223C286.602 63.3223 280.925 60.9705 276.222 56.2705C271.541 51.5297 269.2 45.8112 269.2 39.1186C269.2 33.1149 271.16 27.7631 275.077 23.0631C279.901 17.3038 286.137 14.426 293.796 14.426C297.976 14.426 302.014 15.5742 305.913 17.8742V17.8816Z" fill="#010101"/>
<path d="M194.183 55.4668H214.997L211.661 62.5372H186.396V14.9446H214.997L211.661 22.015H194.183V33.5742H209.588L206.333 40.5112H194.183V55.4668Z" fill="#010101"/>
<path d="M118.321 15.3481V54.463L125.343 62.4741V15.3481H118.321Z" fill="#010101"/>
<path d="M253.319 15.3481V54.463L260.342 62.4741V15.3481H253.319Z" fill="#010101"/>
<path d="M112.052 62.4743H102.649L85.8905 41.5039L84.4422 42.9669V62.3039L77.4236 54.2928V15.178H84.4422V34.1483L102.561 15.3483H111.931L90.8939 36.6817L112.052 62.4743Z" fill="#010101"/>
<path d="M72.6288 65.2037L41.7566 47.9074L40.8569 58.137L34.5808 50.1518L19.7939 67.9L24.896 46.837L17.8262 42.7518L23.9304 37.6148L10.8405 16.8185L30.0639 30.4444L31.3915 29.5111L59.4548 9.85925L46.8185 33.6852L72.6288 65.2037Z" fill="white" stroke="#010101" stroke-width="6.11884" stroke-miterlimit="10"/>
<path d="M43.6292 42.7593L36.2742 40.0185L36.4497 42.3556L34.6393 41.1667L32.0133 45.0371L33.0666 40.8223L31.3367 40.6408L32.4924 38.9297L28.9155 35.1074L33.4909 37.1741L33.7323 36.9223L39.5585 31.8778L37.13 37.163L43.6292 42.7593Z" fill="#010101"/>
</g>
<defs>
<clipPath id="clip0_8_98">
<rect width="305.913" height="80" fill="white"/>
</clipPath>
</defs>
</svg>
