<svg width="30" height="30" viewBox="0 0 30 30" fill="none" xmlns="http://www.w3.org/2000/svg">
<path d="M15 8.08417C11.179 8.08417 8.08423 11.1789 8.08423 15C8.08423 18.821 11.179 21.9157 15 21.9157C18.8211 21.9157 21.9158 18.821 21.9158 15C21.9158 11.1789 18.8211 8.08417 15 8.08417Z" fill="#DADADA"/>
<path d="M14.021 5.68421H16.0105C16.2632 5.68421 16.4842 5.46316 16.4842 5.21053V0.473684C16.4842 0.221053 16.2632 0 16.0105 0H14.021C13.7684 0 13.5474 0.221053 13.5474 0.473684V5.24211C13.5474 5.49474 13.7684 5.68421 14.021 5.68421Z" fill="#DADADA"/>
<path d="M7.07366 9.12636C7.26314 9.31583 7.54735 9.31583 7.73682 9.12636L9.1263 7.73688C9.31577 7.54741 9.31577 7.2632 9.1263 7.07373L5.74735 3.69478C5.55788 3.5053 5.27367 3.5053 5.08419 3.69478L3.69472 5.08425C3.50524 5.27373 3.50524 5.55794 3.69472 5.74741L7.07366 9.12636Z" fill="#DADADA"/>
<path d="M5.68421 15.9789V13.9894C5.68421 13.7368 5.46316 13.5157 5.21053 13.5157H0.473684C0.221053 13.5157 0 13.7368 0 13.9894V15.9789C0 16.2315 0.221053 16.4526 0.473684 16.4526H5.24211C5.49474 16.4526 5.68421 16.2315 5.68421 15.9789Z" fill="#DADADA"/>
<path d="M7.73682 20.8737C7.54735 20.6843 7.26314 20.6843 7.07366 20.8737L3.69472 24.2527C3.50524 24.4422 3.50524 24.7264 3.69472 24.9158L5.08419 26.3053C5.27367 26.4948 5.55788 26.4948 5.74735 26.3053L9.1263 22.9264C9.31577 22.7369 9.31577 22.4527 9.1263 22.2632L7.73682 20.8737Z" fill="#DADADA"/>
<path d="M15.9789 24.3157H13.9894C13.7368 24.3157 13.5157 24.5368 13.5157 24.7894V29.5263C13.5157 29.7789 13.7368 29.9999 13.9894 29.9999H15.9789C16.2315 29.9999 16.4526 29.7789 16.4526 29.5263V24.7578C16.4526 24.5052 16.2315 24.3157 15.9789 24.3157Z" fill="#DADADA"/>
<path d="M22.9263 20.8737C22.7368 20.6843 22.4526 20.6843 22.2631 20.8737L20.8737 22.2632C20.6842 22.4527 20.6842 22.7369 20.8737 22.9264L24.2526 26.3053C24.4421 26.4948 24.7263 26.4948 24.9158 26.3053L26.3053 24.9158C26.4947 24.7264 26.4947 24.4422 26.3053 24.2527L22.9263 20.8737Z" fill="#DADADA"/>
<path d="M29.5264 13.5474H24.758C24.5054 13.5474 24.2843 13.7684 24.2843 14.021V16.0105C24.2843 16.2632 24.5054 16.4842 24.758 16.4842H29.5264C29.779 16.4842 30.0001 16.2632 30.0001 16.0105V14.021C30.0001 13.7684 29.779 13.5474 29.5264 13.5474Z" fill="#DADADA"/>
<path d="M22.2631 9.12636C22.4526 9.31583 22.7368 9.31583 22.9263 9.12636L26.3053 5.74741C26.4947 5.55794 26.4947 5.27373 26.3053 5.08425L24.9158 3.69478C24.7263 3.5053 24.4421 3.5053 24.2526 3.69478L20.8737 7.07373C20.6842 7.2632 20.6842 7.54741 20.8737 7.73688L22.2631 9.12636Z" fill="#DADADA"/>
</svg>
