<svg width="20" height="14" viewBox="0 0 20 14" fill="none" xmlns="http://www.w3.org/2000/svg">
<path fill-rule="evenodd" clip-rule="evenodd" d="M20 7C19.9733 6.9299 19.9459 6.8601 19.9178 6.7905C19.3783 5.4559 18.5876 4.24327 17.5907 3.22183C16.5939 2.20038 15.4105 1.39013 14.1081 0.83733C12.8057 0.28452 11.4097 0 10 0C8.5903 0 7.19435 0.28452 5.89193 0.83733C4.58951 1.39013 3.40611 2.20038 2.40928 3.22183C1.41245 4.24327 0.62172 5.4559 0.0822401 6.7905C0.0541201 6.8601 0.0267 6.9299 0 7C0.0267 7.0701 0.0541201 7.1399 0.0822501 7.2095C0.62173 8.5441 1.41245 9.7567 2.40928 10.7782C3.40611 11.7996 4.58951 12.6099 5.89193 13.1627C7.19435 13.7155 8.5903 14 10 14C11.4097 14 12.8057 13.7155 14.1081 13.1627C15.4105 12.6099 16.5939 11.7996 17.5907 10.7782C18.5876 9.7567 19.3783 8.5441 19.9178 7.2095C19.9459 7.1399 19.9733 7.0701 20 7ZM15 7C15 9.7614 12.7614 12 10 12C7.23858 12 5 9.7614 5 7C5 4.23858 7.23858 2 10 2C12.7614 2 15 4.23858 15 7ZM10 10C11.6569 10 13 8.6569 13 7C13 5.3431 11.6569 4 10 4C8.3431 4 7 5.3431 7 7C7 8.6569 8.3431 10 10 10Z" fill="#444444"/>
</svg>
